M48
;DRILL file {KiCad 4.0.1-stable} date 12/13/2016 9:24:22 AM
;FORMAT={-:-/ absolute / inch / decimal}
FMAT,2
INCH,TZ
T1C0.039
T2C0.039
%
G90
G05
M72
T1
X3.7402Y-3.8189
X3.7598Y-3.8189
X3.7795Y-3.8189
X3.7992Y-3.8189
X3.8189Y-3.8189
X3.8386Y-3.8189
X3.8583Y-3.8189
X3.878Y-3.8189
X3.8976Y-3.8189
X3.9173Y-3.8189
X3.937Y-3.8189
X4.1437Y-3.2283
X4.1437Y-3.4252
X4.1634Y-3.2283
X4.1634Y-3.4252
X4.1831Y-3.2283
X4.1831Y-3.4252
X4.2028Y-3.2283
X4.2028Y-3.4252
X4.2224Y-3.2283
X4.2224Y-3.4252
X4.2421Y-3.2283
X4.2421Y-3.4252
X4.2618Y-3.2283
X4.2618Y-3.4252
X4.2815Y-3.2283
X4.2815Y-3.4252
X4.3012Y-3.2283
X4.3012Y-3.4252
X4.3209Y-3.2283
X4.3209Y-3.4252
X4.3406Y-3.2283
X4.3406Y-3.4252
X4.5472Y-3.8189
X4.5669Y-3.8189
X4.5866Y-3.8189
X4.6063Y-3.8189
X4.626Y-3.8189
X4.6457Y-3.8189
X4.6654Y-3.8189
X4.685Y-3.8189
X4.7047Y-3.8189
X4.7244Y-3.8189
X4.7441Y-3.8189
T2
X3.8386Y-2.9724
X3.8386Y-3.3662
X4.2421Y-2.6181
X4.2421Y-3.0119
X4.6457Y-2.9724
X4.6457Y-3.3662
T0
M30
