M48
;DRILL file {KiCad 4.0.4-stable} date Thursday, December 08, 2016 'AMt' 11:47:14 AM
;FORMAT={-:-/ absolute / metric / decimal}
FMAT,2
METRIC,TZ
T1C1.000
%
G90
G05
M71
T1
X95.Y-97.
X95.5Y-97.
X96.Y-97.
X96.5Y-97.
X97.Y-97.
X97.5Y-97.
X98.Y-97.
X98.5Y-97.
X99.Y-97.
X99.5Y-97.
X100.Y-97.
X105.25Y-82.
X105.25Y-87.
X105.75Y-82.
X105.75Y-87.
X106.25Y-82.
X106.25Y-87.
X106.75Y-82.
X106.75Y-87.
X107.25Y-82.
X107.25Y-87.
X107.75Y-82.
X107.75Y-87.
X108.25Y-82.
X108.25Y-87.
X108.75Y-82.
X108.75Y-87.
X109.25Y-82.
X109.25Y-87.
X109.75Y-82.
X109.75Y-87.
X110.25Y-82.
X110.25Y-87.
X115.5Y-97.
X116.Y-97.
X116.5Y-97.
X117.Y-97.
X117.5Y-97.
X118.Y-97.
X118.5Y-97.
X119.Y-97.
X119.5Y-97.
X120.Y-97.
X120.5Y-97.
T0
M30
