M48
;DRILL file {KiCad 4.0.4-stable} date Thursday, December 15, 2016 'AMt' 04:24:20 AM
;FORMAT={-:-/ absolute / metric / decimal}
FMAT,2
METRIC,TZ
T1C1.000
T2C1.016
%
G90
G05
M71
T1
X128.5Y-71.5
X128.5Y-110.5
X130.5Y-71.5
X130.5Y-110.5
X146.Y-96.5
X146.Y-98.5
X174.5Y-92.
X176.5Y-92.
X180.5Y-71.5
X182.5Y-71.5
T2
X129.5Y-77.92
X129.5Y-80.46
X129.5Y-83.
X129.5Y-100.5
X129.5Y-103.04
X129.5Y-105.58
X146.Y-88.
X148.54Y-88.
X151.08Y-88.
X153.62Y-88.
X156.16Y-88.
X158.7Y-88.
X161.24Y-88.
X161.38Y-101.
X163.78Y-88.
X163.92Y-101.
X166.32Y-88.
X166.46Y-101.
X168.86Y-88.
X169.Y-101.
X181.Y-77.42
X181.Y-79.96
X181.Y-82.5
X181.Y-101.
X181.Y-103.54
X181.Y-106.08
T0
M30
