G04 #@! TF.FileFunction,Copper,L2,Bot,Signal*
%FSLAX46Y46*%
G04 Gerber Fmt 4.6, Leading zero omitted, Abs format (unit mm)*
G04 Created by KiCad (PCBNEW 4.0.4-stable) date Thursday, December 15, 2016 'AMt' 04:24:18 AM*
%MOMM*%
%LPD*%
G01*
G04 APERTURE LIST*
%ADD10C,0.100000*%
%ADD11C,1.000000*%
%ADD12R,1.727200X2.032000*%
%ADD13O,1.727200X2.032000*%
%ADD14R,2.032000X1.727200*%
%ADD15O,2.032000X1.727200*%
%ADD16R,1.700000X2.000000*%
%ADD17R,2.000000X1.700000*%
%ADD18C,1.000000*%
%ADD19C,0.400000*%
G04 APERTURE END LIST*
D10*
D11*
X174500000Y-92000000D03*
X176500000Y-92000000D03*
X180500000Y-71500000D03*
X182500000Y-71500000D03*
X146000000Y-96500000D03*
X146000000Y-98500000D03*
X128500000Y-110500000D03*
X130500000Y-110500000D03*
X128500000Y-71500000D03*
X130500000Y-71500000D03*
D12*
X146000000Y-88000000D03*
D13*
X148540000Y-88000000D03*
X151080000Y-88000000D03*
X153620000Y-88000000D03*
X156160000Y-88000000D03*
X158700000Y-88000000D03*
X161240000Y-88000000D03*
X163780000Y-88000000D03*
X166320000Y-88000000D03*
X168860000Y-88000000D03*
D14*
X181000000Y-101000000D03*
D15*
X181000000Y-103540000D03*
X181000000Y-106080000D03*
D14*
X129500000Y-83000000D03*
D15*
X129500000Y-80460000D03*
X129500000Y-77920000D03*
D14*
X129500000Y-100500000D03*
D15*
X129500000Y-103040000D03*
X129500000Y-105580000D03*
D12*
X169000000Y-101000000D03*
D13*
X166460000Y-101000000D03*
X163920000Y-101000000D03*
X161380000Y-101000000D03*
D16*
X175000000Y-80500000D03*
X175000000Y-84500000D03*
D17*
X163500000Y-105000000D03*
X159500000Y-105000000D03*
D16*
X139500000Y-78500000D03*
X139500000Y-82500000D03*
X139500000Y-103000000D03*
X139500000Y-99000000D03*
D14*
X181000000Y-82500000D03*
D15*
X181000000Y-79960000D03*
X181000000Y-77420000D03*
D18*
X146000000Y-88000000D02*
X142500000Y-88000000D01*
X139500000Y-91000000D02*
X139500000Y-99000000D01*
X142500000Y-88000000D02*
X139500000Y-91000000D01*
X139500000Y-82500000D02*
X147000000Y-82500000D01*
X147000000Y-82500000D02*
X148540000Y-84040000D01*
X148540000Y-84040000D02*
X148540000Y-88000000D01*
X159500000Y-105000000D02*
X153500000Y-105000000D01*
X151080000Y-102580000D02*
X151080000Y-88000000D01*
X153500000Y-105000000D02*
X151080000Y-102580000D01*
X155500000Y-82000000D02*
X153620000Y-83880000D01*
X169000000Y-84500000D02*
X166500000Y-82000000D01*
X166500000Y-82000000D02*
X155500000Y-82000000D01*
X153620000Y-88000000D02*
X153620000Y-83880000D01*
X169000000Y-84500000D02*
X175000000Y-84500000D01*
X163920000Y-101000000D02*
X163920000Y-97920000D01*
X161240000Y-95240000D02*
X161240000Y-88000000D01*
X163920000Y-97920000D02*
X161240000Y-95240000D01*
X166460000Y-101000000D02*
X166460000Y-96460000D01*
X163780000Y-93780000D02*
X163780000Y-88000000D01*
X166460000Y-96460000D02*
X163780000Y-93780000D01*
D19*
X161380000Y-107880000D02*
X161380000Y-107020000D01*
X161500000Y-106900000D02*
X161500000Y-101120000D01*
X161380000Y-107020000D02*
X161500000Y-106900000D01*
X161500000Y-101120000D02*
X161380000Y-101000000D01*
D18*
X129500000Y-105580000D02*
X126080000Y-105580000D01*
X126080000Y-77920000D02*
X129500000Y-77920000D01*
X124500000Y-79500000D02*
X126080000Y-77920000D01*
X124500000Y-104000000D02*
X124500000Y-79500000D01*
X126080000Y-105580000D02*
X124500000Y-104000000D01*
X129500000Y-105580000D02*
X133580000Y-105580000D01*
X160260000Y-109000000D02*
X161380000Y-107880000D01*
X137000000Y-109000000D02*
X160260000Y-109000000D01*
X133580000Y-105580000D02*
X137000000Y-109000000D01*
X181000000Y-106080000D02*
X183920000Y-106080000D01*
X183920000Y-77420000D02*
X181000000Y-77420000D01*
X185500000Y-79000000D02*
X183920000Y-77420000D01*
X185500000Y-104500000D02*
X185500000Y-79000000D01*
X183920000Y-106080000D02*
X185500000Y-104500000D01*
X162500000Y-109000000D02*
X178080000Y-109000000D01*
X161380000Y-107880000D02*
X162500000Y-109000000D01*
X178080000Y-109000000D02*
X181000000Y-106080000D01*
X158700000Y-88000000D02*
X158700000Y-85700000D01*
X166320000Y-85820000D02*
X166320000Y-88000000D01*
X165000000Y-84500000D02*
X166320000Y-85820000D01*
X159900000Y-84500000D02*
X165000000Y-84500000D01*
X158700000Y-85700000D02*
X159900000Y-84500000D01*
X161380000Y-101000000D02*
X161380000Y-98380000D01*
X158700000Y-95700000D02*
X158700000Y-88000000D01*
X161380000Y-98380000D02*
X158700000Y-95700000D01*
D19*
X144500000Y-80500000D02*
X137000000Y-80500000D01*
D18*
X129500000Y-83000000D02*
X134500000Y-83000000D01*
X134500000Y-83000000D02*
X137000000Y-80500000D01*
X144500000Y-80500000D02*
X147000000Y-78000000D01*
X168000000Y-78000000D02*
X147000000Y-78000000D01*
X172500000Y-82500000D02*
X168000000Y-78000000D01*
D19*
X172500000Y-82500000D02*
X181000000Y-82500000D01*
D18*
X168860000Y-88000000D02*
X179000000Y-88000000D01*
X179000000Y-88000000D02*
X181000000Y-86000000D01*
X181000000Y-86000000D02*
X181000000Y-82500000D01*
X129500000Y-83000000D02*
X129500000Y-100500000D01*
X181000000Y-101000000D02*
X169000000Y-101000000D01*
X169000000Y-101000000D02*
X169000000Y-88140000D01*
X169000000Y-88140000D02*
X168860000Y-88000000D01*
X181000000Y-103540000D02*
X175040000Y-103540000D01*
X175040000Y-103540000D02*
X173580000Y-105000000D01*
X173580000Y-105000000D02*
X163500000Y-105000000D01*
X139500000Y-78500000D02*
X135000000Y-78500000D01*
X133040000Y-80460000D02*
X129500000Y-80460000D01*
X135000000Y-78500000D02*
X133040000Y-80460000D01*
X139500000Y-103000000D02*
X129540000Y-103000000D01*
X129540000Y-103000000D02*
X129500000Y-103040000D01*
X181000000Y-79960000D02*
X175540000Y-79960000D01*
X175540000Y-79960000D02*
X175000000Y-80500000D01*
M02*
