solid Default
  facet normal 0.000000e+00 -1.000000e+00 6.123234e-17
    outer loop
      vertex -3.847521e+01 1.129324e+00 1.242627e+00
      vertex -3.847528e+01 1.129324e+00 1.479611e-15
      vertex -3.217110e+01 1.129324e+00 1.242623e+00
    endloop
  endfacet
  facet normal 0.000000e+00 -1.000000e+00 6.123234e-17
    outer loop
      vertex -3.217110e+01 1.129324e+00 1.242623e+00
      vertex -3.847528e+01 1.129324e+00 1.479611e-15
      vertex -3.217103e+01 1.129324e+00 1.479611e-15
    endloop
  endfacet
  facet normal -2.500000e-05 -6.000000e-05 1.000000e+00
    outer loop
      vertex -3.217110e+01 1.129324e+00 1.242623e+00
      vertex -3.541146e+01 2.324886e+01 1.243863e+00
      vertex -3.847521e+01 1.129324e+00 1.242627e+00
    endloop
  endfacet
  facet normal 1.000000e+00 -3.061617e-21 -5.000000e-05
    outer loop
      vertex -3.847521e+01 -2.232184e-01 1.242626e+00
      vertex -3.847528e+01 1.129324e+00 1.479611e-15
      vertex -3.847521e+01 1.129324e+00 1.242627e+00
    endloop
  endfacet
  facet normal 0.000000e+00 -6.123234e-17 -1.000000e+00
    outer loop
      vertex -3.217103e+01 1.129324e+00 1.479611e-15
      vertex -3.847528e+01 1.129324e+00 1.479611e-15
      vertex -3.541146e+01 2.529300e+01 0.000000e+00
    endloop
  endfacet
  facet normal -1.000000e+00 -3.918870e-21 -6.400000e-05
    outer loop
      vertex -3.217103e+01 1.129324e+00 1.479611e-15
      vertex -3.217103e+01 -2.232184e-01 1.562444e-15
      vertex -3.217110e+01 1.129324e+00 1.242623e+00
    endloop
  endfacet
  facet normal -3.500000e-05 -6.100000e-05 1.000000e+00
    outer loop
      vertex -1.432050e+01 1.107198e+01 1.243863e+00
      vertex -3.541146e+01 2.324886e+01 1.243863e+00
      vertex -3.217110e+01 1.129324e+00 1.242623e+00
    endloop
  endfacet
  facet normal 0.000000e+00 -6.100000e-05 1.000000e+00
    outer loop
      vertex -3.541146e+01 2.324886e+01 1.243863e+00
      vertex -5.650243e+01 1.107199e+01 1.243864e+00
      vertex -3.847521e+01 1.129324e+00 1.242627e+00
    endloop
  endfacet
  facet normal 6.900000e-05 -1.000000e-06 1.000000e+00
    outer loop
      vertex -3.847521e+01 -2.232184e-01 1.242626e+00
      vertex -3.847521e+01 1.129324e+00 1.242627e+00
      vertex -5.650242e+01 -1.328177e+01 1.243864e+00
    endloop
  endfacet
  facet normal 1.000000e+00 -3.306546e-21 -5.400000e-05
    outer loop
      vertex -3.847528e+01 -2.232184e-01 1.562444e-15
      vertex -3.847528e+01 1.129324e+00 1.479611e-15
      vertex -3.847521e+01 -2.232184e-01 1.242626e+00
    endloop
  endfacet
  facet normal -0.000000e+00 -6.123234e-17 -1.000000e+00
    outer loop
      vertex -3.541146e+01 2.529300e+01 0.000000e+00
      vertex -1.255020e+01 1.209406e+01 8.082185e-16
      vertex -3.217103e+01 1.129324e+00 1.479611e-15
    endloop
  endfacet
  facet normal -0.000000e+00 -6.123234e-17 -1.000000e+00
    outer loop
      vertex -5.827272e+01 1.209406e+01 8.082185e-16
      vertex -3.541146e+01 2.529300e+01 0.000000e+00
      vertex -3.847528e+01 1.129324e+00 1.479611e-15
    endloop
  endfacet
  facet normal 0.000000e+00 -6.123234e-17 -1.000000e+00
    outer loop
      vertex -1.255720e+01 -1.430386e+01 2.424601e-15
      vertex -3.217103e+01 -2.232184e-01 1.562444e-15
      vertex -3.217103e+01 1.129324e+00 1.479611e-15
    endloop
  endfacet
  facet normal -1.000000e+00 -3.367779e-21 -5.500000e-05
    outer loop
      vertex -3.217110e+01 1.129324e+00 1.242623e+00
      vertex -3.217103e+01 -2.232184e-01 1.562444e-15
      vertex -3.217110e+01 -2.232184e-01 1.242626e+00
    endloop
  endfacet
  facet normal -6.900000e-05 6.123234e-17 1.000000e+00
    outer loop
      vertex -1.432050e+01 1.107198e+01 1.243863e+00
      vertex -3.217110e+01 1.129324e+00 1.242623e+00
      vertex -1.432050e+01 -1.328177e+01 1.243864e+00
    endloop
  endfacet
  facet normal -4.999980e-01 -8.660209e-01 -3.121000e-03
    outer loop
      vertex -3.541146e+01 2.324886e+01 1.243863e+00
      vertex -1.432050e+01 1.107198e+01 1.243863e+00
      vertex -3.541146e+01 2.323831e+01 4.167155e+00
    endloop
  endfacet
  facet normal 4.999980e-01 -8.660209e-01 -3.125000e-03
    outer loop
      vertex -5.650243e+01 1.107199e+01 1.243864e+00
      vertex -3.541146e+01 2.324886e+01 1.243863e+00
      vertex -5.649330e+01 1.106671e+01 4.167157e+00
    endloop
  endfacet
  facet normal 6.900000e-05 6.123234e-17 1.000000e+00
    outer loop
      vertex -5.650243e+01 1.107199e+01 1.243864e+00
      vertex -5.650242e+01 -1.328177e+01 1.243864e+00
      vertex -3.847521e+01 1.129324e+00 1.242627e+00
    endloop
  endfacet
  facet normal 7.800000e-05 -1.300000e-05 1.000000e+00
    outer loop
      vertex -3.846304e+01 -3.761965e+00 1.242580e+00
      vertex -3.847521e+01 -2.232184e-01 1.242626e+00
      vertex -5.650242e+01 -1.328177e+01 1.243864e+00
    endloop
  endfacet
  facet normal 0.000000e+00 1.000000e+00 -6.123234e-17
    outer loop
      vertex -3.217103e+01 -2.232184e-01 1.562444e-15
      vertex -3.847528e+01 -2.232184e-01 1.562444e-15
      vertex -3.217110e+01 -2.232184e-01 1.242626e+00
    endloop
  endfacet
  facet normal 0.000000e+00 1.000000e+00 -6.123234e-17
    outer loop
      vertex -3.217110e+01 -2.232184e-01 1.242626e+00
      vertex -3.847528e+01 -2.232184e-01 1.562444e-15
      vertex -3.847521e+01 -2.232184e-01 1.242626e+00
    endloop
  endfacet
  facet normal 0.000000e+00 -6.123234e-17 -1.000000e+00
    outer loop
      vertex -3.847528e+01 -2.232184e-01 1.562444e-15
      vertex -5.827272e+01 -1.430386e+01 2.424601e-15
      vertex -3.847528e+01 1.129324e+00 1.479611e-15
    endloop
  endfacet
  facet normal 4.999968e-01 8.660207e-01 3.356999e-03
    outer loop
      vertex -3.541146e+01 2.529300e+01 0.000000e+00
      vertex -3.541146e+01 2.527682e+01 4.175278e+00
      vertex -1.255020e+01 1.209406e+01 8.082185e-16
    endloop
  endfacet
  facet normal 0.000000e+00 -6.123234e-17 -1.000000e+00
    outer loop
      vertex -1.255020e+01 1.209406e+01 8.082185e-16
      vertex -1.255720e+01 -1.430386e+01 2.424601e-15
      vertex -3.217103e+01 1.129324e+00 1.479611e-15
    endloop
  endfacet
  facet normal 0.000000e+00 -6.123234e-17 -1.000000e+00
    outer loop
      vertex -5.827272e+01 -1.430386e+01 2.424601e-15
      vertex -5.827272e+01 1.209406e+01 8.082185e-16
      vertex -3.847528e+01 1.129324e+00 1.479611e-15
    endloop
  endfacet
  facet normal -4.999969e-01 8.660208e-01 3.355999e-03
    outer loop
      vertex -5.827272e+01 1.209406e+01 8.082185e-16
      vertex -5.825872e+01 1.208597e+01 4.175278e+00
      vertex -3.541146e+01 2.529300e+01 0.000000e+00
    endloop
  endfacet
  facet normal 0.000000e+00 -6.123234e-17 -1.000000e+00
    outer loop
      vertex -1.255720e+01 -1.430386e+01 2.424601e-15
      vertex -3.217045e+01 -3.761965e+00 1.779122e-15
      vertex -3.217103e+01 -2.232184e-01 1.562444e-15
    endloop
  endfacet
  facet normal -6.900000e-05 6.123234e-17 1.000000e+00
    outer loop
      vertex -1.432050e+01 -1.328177e+01 1.243864e+00
      vertex -3.217110e+01 1.129324e+00 1.242623e+00
      vertex -3.217110e+01 -2.232184e-01 1.242626e+00
    endloop
  endfacet
  facet normal -9.999951e-01 -1.911674e-19 -3.122000e-03
    outer loop
      vertex -1.432050e+01 1.107198e+01 1.243863e+00
      vertex -1.432050e+01 -1.328177e+01 1.243864e+00
      vertex -1.432963e+01 1.106670e+01 4.167155e+00
    endloop
  endfacet
  facet normal 4.999980e-01 -8.660209e-01 -3.125000e-03
    outer loop
      vertex -5.649330e+01 1.106671e+01 4.167157e+00
      vertex -3.541146e+01 2.324886e+01 1.243863e+00
      vertex -3.541146e+01 2.323831e+01 4.167155e+00
    endloop
  endfacet
  facet normal -4.999980e-01 -8.660209e-01 -3.121000e-03
    outer loop
      vertex -3.541146e+01 2.323831e+01 4.167155e+00
      vertex -1.432050e+01 1.107198e+01 1.243863e+00
      vertex -1.432963e+01 1.106670e+01 4.167155e+00
    endloop
  endfacet
  facet normal 9.999951e-01 -1.911674e-19 -3.122000e-03
    outer loop
      vertex -5.649330e+01 -1.327649e+01 4.167156e+00
      vertex -5.650243e+01 1.107199e+01 1.243864e+00
      vertex -5.649330e+01 1.106671e+01 4.167157e+00
    endloop
  endfacet
  facet normal 9.999951e-01 -1.911674e-19 -3.122000e-03
    outer loop
      vertex -5.650242e+01 -1.328177e+01 1.243864e+00
      vertex -5.650243e+01 1.107199e+01 1.243864e+00
      vertex -5.649330e+01 -1.327649e+01 4.167156e+00
    endloop
  endfacet
  facet normal 1.200000e-04 -9.300000e-05 1.000000e+00
    outer loop
      vertex -3.846304e+01 -5.078115e+00 1.242457e+00
      vertex -3.846304e+01 -3.761965e+00 1.242580e+00
      vertex -5.650242e+01 -1.328177e+01 1.243864e+00
    endloop
  endfacet
  facet normal 0.000000e+00 -1.300000e-05 1.000000e+00
    outer loop
      vertex -3.217110e+01 -2.232184e-01 1.242626e+00
      vertex -3.847521e+01 -2.232184e-01 1.242626e+00
      vertex -3.846304e+01 -3.761965e+00 1.242580e+00
    endloop
  endfacet
  facet normal 0.000000e+00 -6.123234e-17 -1.000000e+00
    outer loop
      vertex -3.217103e+01 -2.232184e-01 1.562444e-15
      vertex -3.217045e+01 -3.761965e+00 1.779122e-15
      vertex -3.847528e+01 -2.232184e-01 1.562444e-15
    endloop
  endfacet
  facet normal 0.000000e+00 -6.123234e-17 -1.000000e+00
    outer loop
      vertex -3.846304e+01 -3.761965e+00 1.779122e-15
      vertex -5.827272e+01 -1.430386e+01 2.424601e-15
      vertex -3.847528e+01 -2.232184e-01 1.562444e-15
    endloop
  endfacet
  facet normal -4.999969e-01 8.660208e-01 3.355999e-03
    outer loop
      vertex -3.541146e+01 2.529300e+01 0.000000e+00
      vertex -5.825872e+01 1.208597e+01 4.175278e+00
      vertex -3.541146e+01 2.527682e+01 4.175278e+00
    endloop
  endfacet
  facet normal 4.999968e-01 8.660207e-01 3.357999e-03
    outer loop
      vertex -1.255020e+01 1.209406e+01 8.082185e-16
      vertex -3.541146e+01 2.527682e+01 4.175278e+00
      vertex -1.256421e+01 1.208595e+01 4.175278e+00
    endloop
  endfacet
  facet normal 9.999943e-01 -2.650001e-04 3.354001e-03
    outer loop
      vertex -1.255020e+01 1.209406e+01 8.082185e-16
      vertex -1.256421e+01 1.208595e+01 4.175278e+00
      vertex -1.255720e+01 -1.430386e+01 2.424601e-15
    endloop
  endfacet
  facet normal -9.999943e-01 2.058632e-19 3.362001e-03
    outer loop
      vertex -5.827272e+01 -1.430386e+01 2.424601e-15
      vertex -5.825870e+01 -1.429575e+01 4.175278e+00
      vertex -5.827272e+01 1.209406e+01 8.082185e-16
    endloop
  endfacet
  facet normal -9.999943e-01 2.054346e-19 3.355001e-03
    outer loop
      vertex -5.827272e+01 1.209406e+01 8.082185e-16
      vertex -5.825870e+01 -1.429575e+01 4.175278e+00
      vertex -5.825872e+01 1.208597e+01 4.175278e+00
    endloop
  endfacet
  facet normal 0.000000e+00 -6.123234e-17 -1.000000e+00
    outer loop
      vertex -3.217045e+01 -5.078115e+00 1.859678e-15
      vertex -3.217045e+01 -3.761965e+00 1.779122e-15
      vertex -1.255720e+01 -1.430386e+01 2.424601e-15
    endloop
  endfacet
  facet normal 2.070000e-04 3.779999e-04 9.999999e-01
    outer loop
      vertex -3.217045e+01 -3.761965e+00 1.243964e+00
      vertex -1.432050e+01 -1.328177e+01 1.243864e+00
      vertex -3.217110e+01 -2.232184e-01 1.242626e+00
    endloop
  endfacet
  facet normal -9.999951e-01 -1.911674e-19 -3.122000e-03
    outer loop
      vertex -1.432963e+01 1.106670e+01 4.167155e+00
      vertex -1.432050e+01 -1.328177e+01 1.243864e+00
      vertex -1.432963e+01 -1.327650e+01 4.167156e+00
    endloop
  endfacet
  facet normal 8.900001e-05 -3.984001e-03 9.999921e-01
    outer loop
      vertex -3.541146e+01 2.323831e+01 4.167155e+00
      vertex -5.825872e+01 1.208597e+01 4.175278e+00
      vertex -5.649330e+01 1.106671e+01 4.167157e+00
    endloop
  endfacet
  facet normal -3.406000e-03 -2.070000e-03 9.999920e-01
    outer loop
      vertex -1.432963e+01 1.106670e+01 4.167155e+00
      vertex -3.541146e+01 2.527682e+01 4.175278e+00
      vertex -3.541146e+01 2.323831e+01 4.167155e+00
    endloop
  endfacet
  facet normal 3.495001e-03 -1.914000e-03 9.999921e-01
    outer loop
      vertex -5.649330e+01 1.106671e+01 4.167157e+00
      vertex -5.825870e+01 -1.429575e+01 4.175278e+00
      vertex -5.649330e+01 -1.327649e+01 4.167156e+00
    endloop
  endfacet
  facet normal 4.989369e-01 8.666328e-01 -3.121999e-03
    outer loop
      vertex -5.650242e+01 -1.328177e+01 1.243864e+00
      vertex -5.649330e+01 -1.327649e+01 4.167156e+00
      vertex -4.867337e+01 -1.778913e+01 1.237249e+00
    endloop
  endfacet
  facet normal 4.119998e-04 -7.349997e-04 9.999996e-01
    outer loop
      vertex -3.846304e+01 -5.078115e+00 1.242457e+00
      vertex -5.650242e+01 -1.328177e+01 1.243864e+00
      vertex -4.867398e+01 -1.388460e+01 1.240195e+00
    endloop
  endfacet
  facet normal 1.000000e+00 0.000000e+00 0.000000e+00
    outer loop
      vertex -3.846304e+01 -5.078115e+00 1.859678e-15
      vertex -3.846304e+01 -3.761965e+00 1.779122e-15
      vertex -3.846304e+01 -5.078115e+00 1.242457e+00
    endloop
  endfacet
  facet normal 1.000000e+00 0.000000e+00 0.000000e+00
    outer loop
      vertex -3.846304e+01 -5.078115e+00 1.242457e+00
      vertex -3.846304e+01 -3.761965e+00 1.779122e-15
      vertex -3.846304e+01 -3.761965e+00 1.242580e+00
    endloop
  endfacet
  facet normal -2.200000e-04 3.779999e-04 9.999999e-01
    outer loop
      vertex -3.217110e+01 -2.232184e-01 1.242626e+00
      vertex -3.846304e+01 -3.761965e+00 1.242580e+00
      vertex -3.217045e+01 -3.761965e+00 1.243964e+00
    endloop
  endfacet
  facet normal 0.000000e+00 -6.123234e-17 -1.000000e+00
    outer loop
      vertex -3.847528e+01 -2.232184e-01 1.562444e-15
      vertex -3.217045e+01 -3.761965e+00 1.779122e-15
      vertex -3.846304e+01 -3.761965e+00 1.779122e-15
    endloop
  endfacet
  facet normal 0.000000e+00 -6.123234e-17 -1.000000e+00
    outer loop
      vertex -3.846304e+01 -5.078115e+00 1.859678e-15
      vertex -5.827272e+01 -1.430386e+01 2.424601e-15
      vertex -3.846304e+01 -3.761965e+00 1.779122e-15
    endloop
  endfacet
  facet normal 8.600001e-05 -3.984001e-03 9.999921e-01
    outer loop
      vertex -3.541146e+01 2.527682e+01 4.175278e+00
      vertex -5.825872e+01 1.208597e+01 4.175278e+00
      vertex -3.541146e+01 2.323831e+01 4.167155e+00
    endloop
  endfacet
  facet normal -3.407001e-03 -2.066000e-03 9.999921e-01
    outer loop
      vertex -1.256421e+01 1.208595e+01 4.175278e+00
      vertex -3.541146e+01 2.527682e+01 4.175278e+00
      vertex -1.432963e+01 1.106670e+01 4.167155e+00
    endloop
  endfacet
  facet normal 9.999999e-01 2.120000e-04 3.340000e-04
    outer loop
      vertex -1.255720e+01 -1.430386e+01 2.424601e-15
      vertex -1.256421e+01 1.208595e+01 4.175278e+00
      vertex -1.255720e+01 -1.429576e+01 4.175278e+00
    endloop
  endfacet
  facet normal -5.000939e-01 -8.659649e-01 3.287999e-03
    outer loop
      vertex -5.827272e+01 -1.430386e+01 2.424601e-15
      vertex -4.867337e+01 -1.984280e+01 1.233095e+00
      vertex -5.825870e+01 -1.429575e+01 4.175278e+00
    endloop
  endfacet
  facet normal -5.001961e-01 -8.659072e-01 2.948001e-03
    outer loop
      vertex -5.825870e+01 -1.429575e+01 4.175278e+00
      vertex -4.867337e+01 -1.984280e+01 1.233095e+00
      vertex -4.867337e+01 -1.984280e+01 4.175278e+00
    endloop
  endfacet
  facet normal 3.493001e-03 -1.917000e-03 9.999921e-01
    outer loop
      vertex -5.825872e+01 1.208597e+01 4.175278e+00
      vertex -5.825870e+01 -1.429575e+01 4.175278e+00
      vertex -5.649330e+01 1.106671e+01 4.167157e+00
    endloop
  endfacet
  facet normal 0.000000e+00 -6.123234e-17 -1.000000e+00
    outer loop
      vertex -1.255720e+01 -1.430386e+01 2.424601e-15
      vertex -2.212048e+01 -1.388460e+01 2.398960e-15
      vertex -3.217045e+01 -5.078115e+00 1.859678e-15
    endloop
  endfacet
  facet normal -1.000000e+00 0.000000e+00 0.000000e+00
    outer loop
      vertex -3.217045e+01 -3.761965e+00 1.779122e-15
      vertex -3.217045e+01 -5.078115e+00 1.859678e-15
      vertex -3.217045e+01 -3.761965e+00 1.243964e+00
    endloop
  endfacet
  facet normal -1.000000e+00 0.000000e+00 0.000000e+00
    outer loop
      vertex -3.217045e+01 -3.761965e+00 1.243964e+00
      vertex -3.217045e+01 -5.078115e+00 1.859678e-15
      vertex -3.217045e+01 -5.078115e+00 1.244461e+00
    endloop
  endfacet
  facet normal 2.070000e-04 3.779999e-04 9.999999e-01
    outer loop
      vertex -3.217045e+01 -3.761965e+00 1.243964e+00
      vertex -3.217045e+01 -5.078115e+00 1.244461e+00
      vertex -1.432050e+01 -1.328177e+01 1.243864e+00
    endloop
  endfacet
  facet normal -3.913999e-03 1.161000e-03 9.999917e-01
    outer loop
      vertex -1.432963e+01 -1.327650e+01 4.167156e+00
      vertex -1.256421e+01 1.208595e+01 4.175278e+00
      vertex -1.432963e+01 1.106670e+01 4.167155e+00
    endloop
  endfacet
  facet normal -4.996229e-01 8.662379e-01 -2.971000e-03
    outer loop
      vertex -1.432050e+01 -1.328177e+01 1.243864e+00
      vertex -2.212038e+01 -1.777051e+01 4.167156e+00
      vertex -1.432963e+01 -1.327650e+01 4.167156e+00
    endloop
  endfacet
  facet normal 2.313001e-03 3.969002e-03 9.999894e-01
    outer loop
      vertex -4.867337e+01 -1.984280e+01 4.175245e+00
      vertex -5.649330e+01 -1.327649e+01 4.167156e+00
      vertex -4.867337e+01 -1.984280e+01 4.175278e+00
    endloop
  endfacet
  facet normal 3.888999e-03 1.230999e-03 9.999917e-01
    outer loop
      vertex -5.649330e+01 -1.327649e+01 4.167156e+00
      vertex -5.825870e+01 -1.429575e+01 4.175278e+00
      vertex -4.867337e+01 -1.984280e+01 4.175278e+00
    endloop
  endfacet
  facet normal 4.079998e-04 -7.579997e-04 9.999996e-01
    outer loop
      vertex -4.867398e+01 -1.520075e+01 1.239212e+00
      vertex -5.650242e+01 -1.328177e+01 1.243864e+00
      vertex -4.867337e+01 -1.778913e+01 1.237249e+00
    endloop
  endfacet
  facet normal 4.996419e-01 8.662318e-01 -6.219999e-04
    outer loop
      vertex -4.867337e+01 -1.778913e+01 1.237249e+00
      vertex -5.649330e+01 -1.327649e+01 4.167156e+00
      vertex -4.867337e+01 -1.778913e+01 4.167155e+00
    endloop
  endfacet
  facet normal 9.799999e-05 -3.710000e-04 9.999999e-01
    outer loop
      vertex -3.846304e+01 -5.078115e+00 1.242457e+00
      vertex -4.867398e+01 -1.388460e+01 1.240195e+00
      vertex -4.225450e+01 -1.388460e+01 1.239563e+00
    endloop
  endfacet
  facet normal 4.109998e-04 -7.469997e-04 9.999996e-01
    outer loop
      vertex -4.867398e+01 -1.388460e+01 1.240195e+00
      vertex -5.650242e+01 -1.328177e+01 1.243864e+00
      vertex -4.867398e+01 -1.520075e+01 1.239212e+00
    endloop
  endfacet
  facet normal 0.000000e+00 1.000000e+00 -6.123234e-17
    outer loop
      vertex -3.217045e+01 -5.078115e+00 1.859678e-15
      vertex -3.846304e+01 -5.078115e+00 1.859678e-15
      vertex -3.217045e+01 -5.078115e+00 1.244461e+00
    endloop
  endfacet
  facet normal 0.000000e+00 1.000000e+00 -6.123234e-17
    outer loop
      vertex -3.217045e+01 -5.078115e+00 1.244461e+00
      vertex -3.846304e+01 -5.078115e+00 1.859678e-15
      vertex -3.846304e+01 -5.078115e+00 1.242457e+00
    endloop
  endfacet
  facet normal 0.000000e+00 -1.000000e+00 6.123234e-17
    outer loop
      vertex -3.217045e+01 -3.761965e+00 1.243964e+00
      vertex -3.846304e+01 -3.761965e+00 1.242580e+00
      vertex -3.217045e+01 -3.761965e+00 1.779122e-15
    endloop
  endfacet
  facet normal 0.000000e+00 -1.000000e+00 6.123234e-17
    outer loop
      vertex -3.217045e+01 -3.761965e+00 1.779122e-15
      vertex -3.846304e+01 -3.761965e+00 1.242580e+00
      vertex -3.846304e+01 -3.761965e+00 1.779122e-15
    endloop
  endfacet
  facet normal 0.000000e+00 -6.123234e-17 -1.000000e+00
    outer loop
      vertex -3.846304e+01 -5.078115e+00 1.859678e-15
      vertex -4.867398e+01 -1.388460e+01 2.398960e-15
      vertex -5.827272e+01 -1.430386e+01 2.424601e-15
    endloop
  endfacet
  facet normal 5.013151e-01 -8.652632e-01 1.678000e-03
    outer loop
      vertex -1.255720e+01 -1.429576e+01 4.175278e+00
      vertex -2.212054e+01 -1.984221e+01 1.258261e+00
      vertex -1.255720e+01 -1.430386e+01 2.424601e-15
    endloop
  endfacet
  facet normal -3.909999e-03 1.169000e-03 9.999917e-01
    outer loop
      vertex -1.255720e+01 -1.429576e+01 4.175278e+00
      vertex -1.256421e+01 1.208595e+01 4.175278e+00
      vertex -1.432963e+01 -1.327650e+01 4.167156e+00
    endloop
  endfacet
  facet normal 0.000000e+00 -6.123234e-17 -1.000000e+00
    outer loop
      vertex -1.255720e+01 -1.430386e+01 2.424601e-15
      vertex -2.212048e+01 -1.520075e+01 2.479516e-15
      vertex -2.212048e+01 -1.388460e+01 2.398960e-15
    endloop
  endfacet
  facet normal 0.000000e+00 -6.123234e-17 -1.000000e+00
    outer loop
      vertex -3.217045e+01 -5.078115e+00 1.859678e-15
      vertex -2.212048e+01 -1.388460e+01 2.398960e-15
      vertex -2.838495e+01 -1.388460e+01 2.398960e-15
    endloop
  endfacet
  facet normal 3.669999e-04 7.249998e-04 9.999996e-01
    outer loop
      vertex -1.432050e+01 -1.328177e+01 1.243864e+00
      vertex -3.217045e+01 -5.078115e+00 1.244461e+00
      vertex -2.212048e+01 -1.388460e+01 1.247162e+00
    endloop
  endfacet
  facet normal -4.994541e-01 8.663372e-01 -2.368001e-03
    outer loop
      vertex -2.212064e+01 -1.777863e+01 1.250139e+00
      vertex -2.212038e+01 -1.777051e+01 4.167156e+00
      vertex -1.432050e+01 -1.328177e+01 1.243864e+00
    endloop
  endfacet
  facet normal -2.268999e-03 3.929999e-03 9.999897e-01
    outer loop
      vertex -2.212054e+01 -1.984221e+01 4.175278e+00
      vertex -1.432963e+01 -1.327650e+01 4.167156e+00
      vertex -2.212038e+01 -1.777051e+01 4.167156e+00
    endloop
  endfacet
  facet normal 1.000000e+00 0.000000e+00 0.000000e+00
    outer loop
      vertex -4.867337e+01 -1.984280e+01 4.175175e+00
      vertex -4.867337e+01 -1.778913e+01 4.167155e+00
      vertex -4.867337e+01 -1.984280e+01 4.175245e+00
    endloop
  endfacet
  facet normal 2.272999e-03 3.938999e-03 9.999897e-01
    outer loop
      vertex -4.867337e+01 -1.778913e+01 4.167155e+00
      vertex -5.649330e+01 -1.327649e+01 4.167156e+00
      vertex -4.867337e+01 -1.984280e+01 4.175245e+00
    endloop
  endfacet
  facet normal 9.792000e-03 -2.833000e-03 9.999480e-01
    outer loop
      vertex -3.846304e+01 -5.078115e+00 1.242457e+00
      vertex -4.225450e+01 -1.984280e+01 1.237761e+00
      vertex -4.225450e+01 -1.998926e+01 1.237346e+00
    endloop
  endfacet
  facet normal 0.000000e+00 -1.000000e+00 6.123234e-17
    outer loop
      vertex -4.225450e+01 -1.388460e+01 1.239563e+00
      vertex -4.867398e+01 -1.388460e+01 1.240195e+00
      vertex -4.225450e+01 -1.388460e+01 2.398960e-15
    endloop
  endfacet
  facet normal 0.000000e+00 -1.000000e+00 6.123234e-17
    outer loop
      vertex -4.225450e+01 -1.388460e+01 2.398960e-15
      vertex -4.867398e+01 -1.388460e+01 1.240195e+00
      vertex -4.867398e+01 -1.388460e+01 2.398960e-15
    endloop
  endfacet
  facet normal 1.000000e+00 0.000000e+00 0.000000e+00
    outer loop
      vertex -4.867398e+01 -1.520075e+01 2.479516e-15
      vertex -4.867398e+01 -1.388460e+01 2.398960e-15
      vertex -4.867398e+01 -1.520075e+01 1.239212e+00
    endloop
  endfacet
  facet normal 1.000000e+00 0.000000e+00 0.000000e+00
    outer loop
      vertex -4.867398e+01 -1.520075e+01 1.239212e+00
      vertex -4.867398e+01 -1.388460e+01 2.398960e-15
      vertex -4.867398e+01 -1.388460e+01 1.240195e+00
    endloop
  endfacet
  facet normal 0.000000e+00 -6.123234e-17 -1.000000e+00
    outer loop
      vertex -3.541146e+01 -2.750281e+01 3.232820e-15
      vertex -3.846304e+01 -5.078115e+00 1.859678e-15
      vertex -3.217045e+01 -5.078115e+00 1.859678e-15
    endloop
  endfacet
  facet normal -3.180000e-04 2.300000e-05 9.999999e-01
    outer loop
      vertex -3.846304e+01 -5.078115e+00 1.242457e+00
      vertex -3.541146e+01 -2.392080e+01 1.243863e+00
      vertex -3.217045e+01 -5.078115e+00 1.244461e+00
    endloop
  endfacet
  facet normal 0.000000e+00 -6.123234e-17 -1.000000e+00
    outer loop
      vertex -3.846304e+01 -5.078115e+00 1.859678e-15
      vertex -4.225450e+01 -1.388460e+01 2.398960e-15
      vertex -4.867398e+01 -1.388460e+01 2.398960e-15
    endloop
  endfacet
  facet normal 0.000000e+00 -6.123234e-17 -1.000000e+00
    outer loop
      vertex -4.867398e+01 -1.520075e+01 2.479516e-15
      vertex -5.827272e+01 -1.430386e+01 2.424601e-15
      vertex -4.867398e+01 -1.388460e+01 2.398960e-15
    endloop
  endfacet
  facet normal 5.011502e-01 -8.653603e-01 5.298804e-17
    outer loop
      vertex -2.212054e+01 -1.984221e+01 2.763740e-15
      vertex -1.255720e+01 -1.430386e+01 2.424601e-15
      vertex -2.212054e+01 -1.984221e+01 1.258261e+00
    endloop
  endfacet
  facet normal -3.909999e-03 1.169000e-03 9.999917e-01
    outer loop
      vertex -1.255720e+01 -1.429576e+01 4.175278e+00
      vertex -1.432963e+01 -1.327650e+01 4.167156e+00
      vertex -2.212054e+01 -1.984221e+01 4.175278e+00
    endloop
  endfacet
  facet normal -5.000939e-01 -8.659649e-01 3.287999e-03
    outer loop
      vertex -5.827272e+01 -1.430386e+01 2.424601e-15
      vertex -4.867372e+01 -1.984280e+01 2.763794e-15
      vertex -4.867337e+01 -1.984280e+01 1.233095e+00
    endloop
  endfacet
  facet normal 7.000000e-06 -3.030000e-04 9.999999e-01
    outer loop
      vertex -4.867398e+01 -1.520075e+01 1.239212e+00
      vertex -4.225450e+01 -1.984280e+01 1.237761e+00
      vertex -4.225450e+01 -1.520075e+01 1.239167e+00
    endloop
  endfacet
  facet normal 0.000000e+00 -6.123234e-17 -1.000000e+00
    outer loop
      vertex -3.541146e+01 -2.750281e+01 3.232820e-15
      vertex -2.838525e+01 -1.984280e+01 2.763794e-15
      vertex -2.838525e+01 -2.347088e+01 2.985947e-15
    endloop
  endfacet
  facet normal -1.000000e+00 0.000000e+00 0.000000e+00
    outer loop
      vertex -2.212048e+01 -1.388460e+01 2.398960e-15
      vertex -2.212048e+01 -1.520075e+01 2.479516e-15
      vertex -2.212048e+01 -1.388460e+01 1.247162e+00
    endloop
  endfacet
  facet normal -1.000000e+00 0.000000e+00 0.000000e+00
    outer loop
      vertex -2.212048e+01 -1.388460e+01 1.247162e+00
      vertex -2.212048e+01 -1.520075e+01 2.479516e-15
      vertex -2.212048e+01 -1.520075e+01 1.248167e+00
    endloop
  endfacet
  facet normal 0.000000e+00 -6.123234e-17 -1.000000e+00
    outer loop
      vertex -3.541146e+01 -2.750281e+01 3.232820e-15
      vertex -3.217045e+01 -5.078115e+00 1.859678e-15
      vertex -2.838495e+01 -1.520075e+01 2.479516e-15
    endloop
  endfacet
  facet normal 0.000000e+00 -6.123234e-17 -1.000000e+00
    outer loop
      vertex -3.217045e+01 -5.078115e+00 1.859678e-15
      vertex -2.838495e+01 -1.388460e+01 2.398960e-15
      vertex -2.838495e+01 -1.520075e+01 2.479516e-15
    endloop
  endfacet
  facet normal 0.000000e+00 -1.000000e+00 6.123234e-17
    outer loop
      vertex -2.212048e+01 -1.388460e+01 1.247162e+00
      vertex -2.838495e+01 -1.388460e+01 1.247579e+00
      vertex -2.212048e+01 -1.388460e+01 2.398960e-15
    endloop
  endfacet
  facet normal 0.000000e+00 -1.000000e+00 6.123234e-17
    outer loop
      vertex -2.212048e+01 -1.388460e+01 2.398960e-15
      vertex -2.838495e+01 -1.388460e+01 1.247579e+00
      vertex -2.838495e+01 -1.388460e+01 2.398960e-15
    endloop
  endfacet
  facet normal 3.639999e-04 7.639997e-04 9.999996e-01
    outer loop
      vertex -2.212048e+01 -1.520075e+01 1.248167e+00
      vertex -1.432050e+01 -1.328177e+01 1.243864e+00
      vertex -2.212048e+01 -1.388460e+01 1.247162e+00
    endloop
  endfacet
  facet normal 6.699999e-05 3.830000e-04 9.999999e-01
    outer loop
      vertex -2.212048e+01 -1.388460e+01 1.247162e+00
      vertex -3.217045e+01 -5.078115e+00 1.244461e+00
      vertex -2.838495e+01 -1.388460e+01 1.247579e+00
    endloop
  endfacet
  facet normal 3.629999e-04 7.649997e-04 9.999996e-01
    outer loop
      vertex -2.212048e+01 -1.520075e+01 1.248167e+00
      vertex -2.212064e+01 -1.777863e+01 1.250139e+00
      vertex -1.432050e+01 -1.328177e+01 1.243864e+00
    endloop
  endfacet
  facet normal -1.000000e+00 7.600000e-05 8.600000e-05
    outer loop
      vertex -2.212038e+01 -1.777051e+01 4.167156e+00
      vertex -2.212064e+01 -1.777863e+01 1.250139e+00
      vertex -2.212054e+01 -1.984221e+01 4.175278e+00
    endloop
  endfacet
  facet normal 0.000000e+00 1.000000e+00 -6.123234e-17
    outer loop
      vertex -4.225450e+01 -1.520075e+01 2.479516e-15
      vertex -4.867398e+01 -1.520075e+01 2.479516e-15
      vertex -4.225450e+01 -1.520075e+01 1.239167e+00
    endloop
  endfacet
  facet normal 0.000000e+00 1.000000e+00 -6.123234e-17
    outer loop
      vertex -4.225450e+01 -1.520075e+01 1.239167e+00
      vertex -4.867398e+01 -1.520075e+01 2.479516e-15
      vertex -4.867398e+01 -1.520075e+01 1.239212e+00
    endloop
  endfacet
  facet normal -1.002999e-03 -8.799996e-05 9.999995e-01
    outer loop
      vertex -3.541146e+01 -2.392080e+01 1.243863e+00
      vertex -3.846304e+01 -5.078115e+00 1.242457e+00
      vertex -4.225450e+01 -1.998926e+01 1.237346e+00
    endloop
  endfacet
  facet normal -1.000000e+00 -3.061617e-22 -5.000000e-06
    outer loop
      vertex -4.225450e+01 -1.984280e+01 2.763794e-15
      vertex -4.225450e+01 -1.998926e+01 1.237346e+00
      vertex -4.225450e+01 -1.984280e+01 1.237761e+00
    endloop
  endfacet
  facet normal -1.000000e+00 0.000000e+00 0.000000e+00
    outer loop
      vertex -4.225450e+01 -1.388460e+01 2.398960e-15
      vertex -4.225450e+01 -1.520075e+01 2.479516e-15
      vertex -4.225450e+01 -1.388460e+01 1.239563e+00
    endloop
  endfacet
  facet normal -1.000000e+00 0.000000e+00 0.000000e+00
    outer loop
      vertex -4.225450e+01 -1.388460e+01 1.239563e+00
      vertex -4.225450e+01 -1.520075e+01 2.479516e-15
      vertex -4.225450e+01 -1.520075e+01 1.239167e+00
    endloop
  endfacet
  facet normal 0.000000e+00 -6.123234e-17 -1.000000e+00
    outer loop
      vertex -3.541146e+01 -2.750281e+01 3.232820e-15
      vertex -4.225450e+01 -1.388460e+01 2.398960e-15
      vertex -3.846304e+01 -5.078115e+00 1.859678e-15
    endloop
  endfacet
  facet normal 0.000000e+00 -6.123234e-17 -1.000000e+00
    outer loop
      vertex -4.867372e+01 -1.984280e+01 2.763794e-15
      vertex -5.827272e+01 -1.430386e+01 2.424601e-15
      vertex -4.867398e+01 -1.520075e+01 2.479516e-15
    endloop
  endfacet
  facet normal 0.000000e+00 -6.123234e-17 -1.000000e+00
    outer loop
      vertex -3.541146e+01 -2.750281e+01 3.232820e-15
      vertex -4.225450e+01 -1.984280e+01 2.763794e-15
      vertex -4.225450e+01 -1.520075e+01 2.479516e-15
    endloop
  endfacet
  facet normal 0.000000e+00 1.000000e+00 -6.123234e-17
    outer loop
      vertex -2.212048e+01 -1.520075e+01 2.479516e-15
      vertex -2.838495e+01 -1.520075e+01 2.479516e-15
      vertex -2.212048e+01 -1.520075e+01 1.248167e+00
    endloop
  endfacet
  facet normal 0.000000e+00 1.000000e+00 -6.123234e-17
    outer loop
      vertex -2.212048e+01 -1.520075e+01 1.248167e+00
      vertex -2.838495e+01 -1.520075e+01 2.479516e-15
      vertex -2.838495e+01 -1.520075e+01 1.248016e+00
    endloop
  endfacet
  facet normal 1.000000e+00 0.000000e+00 0.000000e+00
    outer loop
      vertex -2.838495e+01 -1.520075e+01 2.479516e-15
      vertex -2.838495e+01 -1.388460e+01 2.398960e-15
      vertex -2.838495e+01 -1.520075e+01 1.248016e+00
    endloop
  endfacet
  facet normal 1.000000e+00 0.000000e+00 0.000000e+00
    outer loop
      vertex -2.838495e+01 -1.520075e+01 1.248016e+00
      vertex -2.838495e+01 -1.388460e+01 2.398960e-15
      vertex -2.838495e+01 -1.388460e+01 1.247579e+00
    endloop
  endfacet
  facet normal -4.971420e-01 -8.675951e-01 1.134200e-02
    outer loop
      vertex -4.225450e+01 -2.358166e+01 2.992723e-15
      vertex -3.541146e+01 -2.750281e+01 3.232820e-15
      vertex -4.225450e+01 -2.356553e+01 1.233684e+00
    endloop
  endfacet
  facet normal -4.971637e-01 -8.675845e-01 1.119199e-02
    outer loop
      vertex -4.225450e+01 -2.356553e+01 1.233684e+00
      vertex -3.541146e+01 -2.750281e+01 3.232820e-15
      vertex -4.225450e+01 -2.356546e+01 1.251757e+00
    endloop
  endfacet
  facet normal -4.975847e-01 -8.674144e-01 1.269999e-03
    outer loop
      vertex -4.225450e+01 -2.356546e+01 1.251757e+00
      vertex -3.541146e+01 -2.750281e+01 3.232820e-15
      vertex -3.541146e+01 -2.748662e+01 4.175278e+00
    endloop
  endfacet
  facet normal -4.975847e-01 -8.674144e-01 1.269999e-03
    outer loop
      vertex -4.225450e+01 -2.356546e+01 1.251757e+00
      vertex -3.541146e+01 -2.748662e+01 4.175278e+00
      vertex -4.225450e+01 -2.356546e+01 4.175278e+00
    endloop
  endfacet
  facet normal 1.298999e-03 2.270999e-03 9.999966e-01
    outer loop
      vertex -4.225450e+01 -2.355682e+01 4.175243e+00
      vertex -4.225450e+01 -2.356546e+01 4.175278e+00
      vertex -3.541146e+01 -2.391027e+01 4.167155e+00
    endloop
  endfacet
  facet normal -1.900001e-05 2.271001e-03 9.999974e-01
    outer loop
      vertex -3.541146e+01 -2.391027e+01 4.167155e+00
      vertex -4.225450e+01 -2.356546e+01 4.175278e+00
      vertex -3.541146e+01 -2.748662e+01 4.175278e+00
    endloop
  endfacet
  facet normal 1.298999e-03 2.270999e-03 9.999966e-01
    outer loop
      vertex -4.225450e+01 -2.355682e+01 4.175243e+00
      vertex -3.541146e+01 -2.391027e+01 4.167155e+00
      vertex -4.225450e+01 -1.998911e+01 4.167155e+00
    endloop
  endfacet
  facet normal 4.971759e-01 8.676498e-01 -4.499999e-05
    outer loop
      vertex -4.225450e+01 -1.998911e+01 4.167155e+00
      vertex -3.541146e+01 -2.391027e+01 4.167155e+00
      vertex -4.225450e+01 -1.998926e+01 1.237346e+00
    endloop
  endfacet
  facet normal 4.974000e-01 8.675210e-01 -7.400000e-04
    outer loop
      vertex -4.225450e+01 -1.998926e+01 1.237346e+00
      vertex -3.541146e+01 -2.391027e+01 4.167155e+00
      vertex -3.541146e+01 -2.392080e+01 1.243863e+00
    endloop
  endfacet
  facet normal 0.000000e+00 -6.123234e-17 -1.000000e+00
    outer loop
      vertex -3.541146e+01 -2.750281e+01 3.232820e-15
      vertex -4.225450e+01 -1.520075e+01 2.479516e-15
      vertex -4.225450e+01 -1.388460e+01 2.398960e-15
    endloop
  endfacet
  facet normal -4.986740e-01 8.667840e-01 -3.124000e-03
    outer loop
      vertex -3.541146e+01 -2.392080e+01 1.243863e+00
      vertex -3.541146e+01 -2.391027e+01 4.167155e+00
      vertex -2.838525e+01 -1.987849e+01 1.250045e+00
    endloop
  endfacet
  facet normal -4.979288e-01 8.672177e-01 -7.269997e-04
    outer loop
      vertex -2.838525e+01 -1.987849e+01 1.250045e+00
      vertex -3.541146e+01 -2.391027e+01 4.167155e+00
      vertex -2.838525e+01 -1.987833e+01 4.167156e+00
    endloop
  endfacet
  facet normal 4.987090e-01 -8.667620e-01 3.599000e-03
    outer loop
      vertex -3.541146e+01 -2.750281e+01 3.232820e-15
      vertex -2.838525e+01 -2.347088e+01 2.985947e-15
      vertex -2.838525e+01 -2.345501e+01 1.234810e+00
    endloop
  endfacet
  facet normal 4.977172e-01 -8.673394e-01 9.700004e-05
    outer loop
      vertex -3.541146e+01 -2.748662e+01 4.175278e+00
      vertex -2.838525e+01 -2.345501e+01 1.234810e+00
      vertex -2.838525e+01 -2.345468e+01 4.175278e+00
    endloop
  endfacet
  facet normal -1.800001e-05 2.271001e-03 9.999974e-01
    outer loop
      vertex -3.541146e+01 -2.748662e+01 4.175278e+00
      vertex -2.838525e+01 -2.345468e+01 4.175278e+00
      vertex -3.541146e+01 -2.391027e+01 4.167155e+00
    endloop
  endfacet
  facet normal -1.900001e-05 2.271001e-03 9.999974e-01
    outer loop
      vertex -3.541146e+01 -2.391027e+01 4.167155e+00
      vertex -2.838525e+01 -2.345468e+01 4.175278e+00
      vertex -2.838525e+01 -1.987833e+01 4.167156e+00
    endloop
  endfacet
  facet normal 9.500000e-05 -1.000000e+00 6.123234e-17
    outer loop
      vertex -2.838525e+01 -1.984280e+01 2.763794e-15
      vertex -2.212054e+01 -1.984221e+01 2.763740e-15
      vertex -2.838525e+01 -1.984280e+01 1.249604e+00
    endloop
  endfacet
  facet normal 1.000000e+00 0.000000e+00 0.000000e+00
    outer loop
      vertex -2.838525e+01 -1.984280e+01 2.763794e-15
      vertex -2.838525e+01 -2.345501e+01 1.234810e+00
      vertex -2.838525e+01 -2.347088e+01 2.985947e-15
    endloop
  endfacet
  facet normal -9.559995e-04 1.329999e-04 9.999995e-01
    outer loop
      vertex -2.838525e+01 -1.987849e+01 1.250045e+00
      vertex -3.217045e+01 -5.078115e+00 1.244461e+00
      vertex -3.541146e+01 -2.392080e+01 1.243863e+00
    endloop
  endfacet
  facet normal -3.300000e-05 3.400000e-04 9.999999e-01
    outer loop
      vertex -3.217045e+01 -5.078115e+00 1.244461e+00
      vertex -2.838525e+01 -1.984280e+01 1.249604e+00
      vertex -2.838495e+01 -1.388460e+01 1.247579e+00
    endloop
  endfacet
  facet normal -3.300000e-05 3.400000e-04 9.999999e-01
    outer loop
      vertex -2.838525e+01 -1.984280e+01 1.249604e+00
      vertex -2.838495e+01 -1.520075e+01 1.248016e+00
      vertex -2.838495e+01 -1.388460e+01 1.247579e+00
    endloop
  endfacet
  facet normal 4.681800e-02 1.235700e-02 9.988270e-01
    outer loop
      vertex -3.217045e+01 -5.078115e+00 1.244461e+00
      vertex -2.838525e+01 -1.987849e+01 1.250045e+00
      vertex -2.838525e+01 -1.984280e+01 1.249604e+00
    endloop
  endfacet
  facet normal -5.900000e-05 -3.030000e-04 9.999999e-01
    outer loop
      vertex -4.225450e+01 -1.520075e+01 1.239167e+00
      vertex -4.225450e+01 -1.984280e+01 1.237761e+00
      vertex -3.846304e+01 -5.078115e+00 1.242457e+00
    endloop
  endfacet
  facet normal -6.399999e-05 -3.010000e-04 9.999999e-01
    outer loop
      vertex -4.225450e+01 -1.520075e+01 1.239167e+00
      vertex -3.846304e+01 -5.078115e+00 1.242457e+00
      vertex -4.225450e+01 -1.388460e+01 1.239563e+00
    endloop
  endfacet
  facet normal 0.000000e+00 -6.123234e-17 -1.000000e+00
    outer loop
      vertex -4.867372e+01 -1.984280e+01 2.763794e-15
      vertex -4.867398e+01 -1.520075e+01 2.479516e-15
      vertex -4.225450e+01 -1.984280e+01 2.763794e-15
    endloop
  endfacet
  facet normal 0.000000e+00 -6.123234e-17 -1.000000e+00
    outer loop
      vertex -4.225450e+01 -1.520075e+01 2.479516e-15
      vertex -4.225450e+01 -1.984280e+01 2.763794e-15
      vertex -4.867398e+01 -1.520075e+01 2.479516e-15
    endloop
  endfacet
  facet normal 0.000000e+00 -6.123234e-17 -1.000000e+00
    outer loop
      vertex -4.225450e+01 -1.984280e+01 2.763794e-15
      vertex -3.541146e+01 -2.750281e+01 3.232820e-15
      vertex -4.225450e+01 -2.358166e+01 2.992723e-15
    endloop
  endfacet
  facet normal -1.000000e+00 0.000000e+00 0.000000e+00
    outer loop
      vertex -4.225450e+01 -2.356546e+01 4.175278e+00
      vertex -4.225450e+01 -2.355682e+01 4.175243e+00
      vertex -4.225450e+01 -1.998926e+01 1.237346e+00
    endloop
  endfacet
  facet normal -1.000000e+00 6.123234e-23 1.000000e-06
    outer loop
      vertex -4.225450e+01 -1.998926e+01 1.237346e+00
      vertex -4.225450e+01 -2.355682e+01 4.175243e+00
      vertex -4.225450e+01 -1.998911e+01 4.167155e+00
    endloop
  endfacet
  facet normal -1.000000e+00 -3.061617e-22 -5.000000e-06
    outer loop
      vertex -4.225450e+01 -1.984280e+01 2.763794e-15
      vertex -4.225450e+01 -2.358166e+01 2.992723e-15
      vertex -4.225450e+01 -1.998926e+01 1.237346e+00
    endloop
  endfacet
  facet normal -1.000000e+00 -2.449294e-22 -4.000000e-06
    outer loop
      vertex -4.225450e+01 -1.998926e+01 1.237346e+00
      vertex -4.225450e+01 -2.358166e+01 2.992723e-15
      vertex -4.225450e+01 -2.356553e+01 1.233684e+00
    endloop
  endfacet
  facet normal -1.000000e+00 0.000000e+00 0.000000e+00
    outer loop
      vertex -4.225450e+01 -2.356553e+01 1.233684e+00
      vertex -4.225450e+01 -2.356546e+01 1.251757e+00
      vertex -4.225450e+01 -1.998926e+01 1.237346e+00
    endloop
  endfacet
  facet normal -1.000000e+00 6.123234e-23 1.000000e-06
    outer loop
      vertex -4.225450e+01 -1.998926e+01 1.237346e+00
      vertex -4.225450e+01 -2.356546e+01 1.251757e+00
      vertex -4.225450e+01 -2.356546e+01 4.175278e+00
    endloop
  endfacet
  facet normal 0.000000e+00 -1.000000e+00 6.123234e-17
    outer loop
      vertex -4.225450e+01 -1.984280e+01 1.237761e+00
      vertex -4.867337e+01 -1.984280e+01 1.233095e+00
      vertex -4.225450e+01 -1.984280e+01 2.763794e-15
    endloop
  endfacet
  facet normal 0.000000e+00 -1.000000e+00 6.123234e-17
    outer loop
      vertex -4.225450e+01 -1.984280e+01 2.763794e-15
      vertex -4.867337e+01 -1.984280e+01 1.233095e+00
      vertex -4.867372e+01 -1.984280e+01 2.763794e-15
    endloop
  endfacet
  facet normal 1.000000e+00 0.000000e+00 0.000000e+00
    outer loop
      vertex -4.867337e+01 -1.778913e+01 4.167155e+00
      vertex -4.867337e+01 -1.984280e+01 1.233095e+00
      vertex -4.867337e+01 -1.778913e+01 1.237249e+00
    endloop
  endfacet
  facet normal 1.000000e+00 0.000000e+00 0.000000e+00
    outer loop
      vertex -4.867337e+01 -1.778913e+01 4.167155e+00
      vertex -4.867337e+01 -1.984280e+01 4.175175e+00
      vertex -4.867337e+01 -1.984280e+01 1.233095e+00
    endloop
  endfacet
  facet normal 1.000000e+00 0.000000e+00 0.000000e+00
    outer loop
      vertex -4.867337e+01 -1.984280e+01 1.233095e+00
      vertex -4.867337e+01 -1.984280e+01 4.175175e+00
      vertex -4.867337e+01 -1.984280e+01 4.175278e+00
    endloop
  endfacet
  facet normal 1.000000e+00 0.000000e+00 0.000000e+00
    outer loop
      vertex -4.867337e+01 -1.984280e+01 4.175175e+00
      vertex -4.867337e+01 -1.984280e+01 4.175245e+00
      vertex -4.867337e+01 -1.984280e+01 4.175278e+00
    endloop
  endfacet
  facet normal -7.269998e-04 -2.022999e-03 9.999977e-01
    outer loop
      vertex -4.867337e+01 -1.778913e+01 1.237249e+00
      vertex -4.867337e+01 -1.984280e+01 1.233095e+00
      vertex -4.225450e+01 -1.984280e+01 1.237761e+00
    endloop
  endfacet
  facet normal -3.219999e-04 -7.579997e-04 9.999996e-01
    outer loop
      vertex -4.867337e+01 -1.778913e+01 1.237249e+00
      vertex -4.225450e+01 -1.984280e+01 1.237761e+00
      vertex -4.867398e+01 -1.520075e+01 1.239212e+00
    endloop
  endfacet
  facet normal 1.000000e+00 -6.123234e-23 -1.000000e-06
    outer loop
      vertex -2.838525e+01 -2.345501e+01 1.234810e+00
      vertex -2.838525e+01 -1.987849e+01 1.250045e+00
      vertex -2.838525e+01 -2.345468e+01 4.175278e+00
    endloop
  endfacet
  facet normal 1.000000e+00 0.000000e+00 0.000000e+00
    outer loop
      vertex -2.838525e+01 -1.984280e+01 1.249604e+00
      vertex -2.838525e+01 -1.987849e+01 1.250045e+00
      vertex -2.838525e+01 -1.984280e+01 2.763794e-15
    endloop
  endfacet
  facet normal 1.000000e+00 1.836970e-22 3.000000e-06
    outer loop
      vertex -2.838525e+01 -2.345468e+01 4.175278e+00
      vertex -2.838525e+01 -1.987849e+01 1.250045e+00
      vertex -2.838525e+01 -1.987833e+01 4.167156e+00
    endloop
  endfacet
  facet normal 1.000000e+00 0.000000e+00 0.000000e+00
    outer loop
      vertex -2.838525e+01 -1.984280e+01 2.763794e-15
      vertex -2.838525e+01 -1.987849e+01 1.250045e+00
      vertex -2.838525e+01 -2.345501e+01 1.234810e+00
    endloop
  endfacet
  facet normal 4.987408e-01 -8.667447e-01 3.360999e-03
    outer loop
      vertex -3.541146e+01 -2.748662e+01 4.175278e+00
      vertex -3.541146e+01 -2.750281e+01 3.232820e-15
      vertex -2.838525e+01 -2.345501e+01 1.234810e+00
    endloop
  endfacet
  facet normal -1.382001e-03 3.936002e-03 9.999914e-01
    outer loop
      vertex -2.212054e+01 -1.984221e+01 1.258261e+00
      vertex -2.212064e+01 -1.777863e+01 1.250139e+00
      vertex -2.838525e+01 -1.984280e+01 1.249604e+00
    endloop
  endfacet
  facet normal -2.399999e-05 7.649998e-04 9.999997e-01
    outer loop
      vertex -2.838495e+01 -1.520075e+01 1.248016e+00
      vertex -2.212064e+01 -1.777863e+01 1.250139e+00
      vertex -2.212048e+01 -1.520075e+01 1.248167e+00
    endloop
  endfacet
  facet normal -1.980000e-04 3.420000e-04 9.999999e-01
    outer loop
      vertex -2.838525e+01 -1.984280e+01 1.249604e+00
      vertex -2.212064e+01 -1.777863e+01 1.250139e+00
      vertex -2.838495e+01 -1.520075e+01 1.248016e+00
    endloop
  endfacet
  facet normal -1.000000e+00 -4.800000e-05 2.939152e-21
    outer loop
      vertex -2.212054e+01 -1.984221e+01 4.175278e+00
      vertex -2.212064e+01 -1.777863e+01 1.250139e+00
      vertex -2.212054e+01 -1.984221e+01 1.258261e+00
    endloop
  endfacet
  facet normal 9.400000e-05 -1.000000e+00 6.123234e-17
    outer loop
      vertex -2.838525e+01 -1.984280e+01 1.249604e+00
      vertex -2.212054e+01 -1.984221e+01 2.763740e-15
      vertex -2.212054e+01 -1.984221e+01 1.258261e+00
    endloop
  endfacet
  facet normal 5.016980e-01 -8.650429e-01 5.296860e-17
    outer loop
      vertex -2.212054e+01 -1.984221e+01 4.175278e+00
      vertex -2.212054e+01 -1.984221e+01 1.258261e+00
      vertex -1.255720e+01 -1.429576e+01 4.175278e+00
    endloop
  endfacet
  facet normal 0.000000e+00 -6.123234e-17 -1.000000e+00
    outer loop
      vertex -2.838525e+01 -1.984280e+01 2.763794e-15
      vertex -2.838495e+01 -1.520075e+01 2.479516e-15
      vertex -2.212048e+01 -1.520075e+01 2.479516e-15
    endloop
  endfacet
  facet normal 0.000000e+00 -6.123234e-17 -1.000000e+00
    outer loop
      vertex -2.212054e+01 -1.984221e+01 2.763740e-15
      vertex -2.212048e+01 -1.520075e+01 2.479516e-15
      vertex -1.255720e+01 -1.430386e+01 2.424601e-15
    endloop
  endfacet
  facet normal 0.000000e+00 -6.123234e-17 -1.000000e+00
    outer loop
      vertex -2.838525e+01 -1.984280e+01 2.763794e-15
      vertex -2.212048e+01 -1.520075e+01 2.479516e-15
      vertex -2.212054e+01 -1.984221e+01 2.763740e-15
    endloop
  endfacet
  facet normal 0.000000e+00 -6.123234e-17 -1.000000e+00
    outer loop
      vertex -3.541146e+01 -2.750281e+01 3.232820e-15
      vertex -2.838495e+01 -1.520075e+01 2.479516e-15
      vertex -2.838525e+01 -1.984280e+01 2.763794e-15
    endloop
  endfacet
  facet normal 4.999989e-01 8.660248e-01 1.466000e-03
    outer loop
      vertex 3.265464e+01 2.957465e+01 5.705285e+00
      vertex 5.826705e+01 1.478733e+01 5.705285e+00
      vertex 3.265464e+01 2.958120e+01 1.830760e+00
    endloop
  endfacet
  facet normal 4.999989e-01 8.660248e-01 1.466000e-03
    outer loop
      vertex 3.265464e+01 2.958120e+01 1.830760e+00
      vertex 5.826705e+01 1.478733e+01 5.705285e+00
      vertex 5.827272e+01 1.479061e+01 1.830760e+00
    endloop
  endfacet
  facet normal 9.999989e-01 8.958290e-20 1.463000e-03
    outer loop
      vertex 5.826705e+01 1.478733e+01 5.705285e+00
      vertex 5.826705e+01 -1.478732e+01 5.705285e+00
      vertex 5.827272e+01 1.479061e+01 1.830760e+00
    endloop
  endfacet
  facet normal 9.999989e-01 8.958290e-20 1.463000e-03
    outer loop
      vertex 5.827272e+01 1.479061e+01 1.830760e+00
      vertex 5.826705e+01 -1.478732e+01 5.705285e+00
      vertex 5.827272e+01 -1.479059e+01 1.830760e+00
    endloop
  endfacet
  facet normal 5.002092e-01 -8.659034e-01 1.463001e-03
    outer loop
      vertex 3.265465e+01 -2.958120e+01 1.830760e+00
      vertex 4.189531e+01 -2.423956e+01 3.944794e+00
      vertex 3.265466e+01 -2.957465e+01 5.705285e+00
    endloop
  endfacet
  facet normal 5.001987e-01 -8.659095e-01 1.388999e-03
    outer loop
      vertex 3.265466e+01 -2.957465e+01 5.705285e+00
      vertex 4.189531e+01 -2.423956e+01 3.944794e+00
      vertex 4.189531e+01 -2.423956e+01 5.705285e+00
    endloop
  endfacet
  facet normal -9.999989e-01 8.964413e-20 1.464000e-03
    outer loop
      vertex 7.042251e+00 -1.478732e+01 5.705285e+00
      vertex 7.042251e+00 1.478733e+01 5.705285e+00
      vertex 7.036578e+00 -1.479060e+01 1.830760e+00
    endloop
  endfacet
  facet normal -9.999989e-01 8.964413e-20 1.464000e-03
    outer loop
      vertex 7.036578e+00 -1.479060e+01 1.830760e+00
      vertex 7.042251e+00 1.478733e+01 5.705285e+00
      vertex 7.036578e+00 1.479061e+01 1.830760e+00
    endloop
  endfacet
  facet normal -4.999989e-01 8.660248e-01 1.464000e-03
    outer loop
      vertex 7.042251e+00 1.478733e+01 5.705285e+00
      vertex 3.265464e+01 2.957465e+01 5.705285e+00
      vertex 7.036578e+00 1.479061e+01 1.830760e+00
    endloop
  endfacet
  facet normal -4.999989e-01 8.660248e-01 1.464000e-03
    outer loop
      vertex 7.036578e+00 1.479061e+01 1.830760e+00
      vertex 3.265464e+01 2.957465e+01 5.705285e+00
      vertex 3.265464e+01 2.958120e+01 1.830760e+00
    endloop
  endfacet
  facet normal 3.415251e-01 5.915403e-01 -7.303703e-01
    outer loop
      vertex 3.265464e+01 2.958120e+01 1.830760e+00
      vertex 5.827272e+01 1.479061e+01 1.830760e+00
      vertex 3.265465e+01 2.732085e+01 6.200001e-05
    endloop
  endfacet
  facet normal 3.415251e-01 5.915403e-01 -7.303703e-01
    outer loop
      vertex 3.265465e+01 2.732085e+01 6.200001e-05
      vertex 5.827272e+01 1.479061e+01 1.830760e+00
      vertex 5.631518e+01 1.366043e+01 6.200001e-05
    endloop
  endfacet
  facet normal 6.830493e-01 -4.472240e-17 -7.303723e-01
    outer loop
      vertex 5.827272e+01 1.479061e+01 1.830760e+00
      vertex 5.827272e+01 -1.479059e+01 1.830760e+00
      vertex 5.631518e+01 1.366043e+01 6.200001e-05
    endloop
  endfacet
  facet normal 6.830493e-01 -4.472240e-17 -7.303723e-01
    outer loop
      vertex 5.631518e+01 1.366043e+01 6.200001e-05
      vertex 5.827272e+01 -1.479059e+01 1.830760e+00
      vertex 5.631518e+01 -1.366041e+01 6.200001e-05
    endloop
  endfacet
  facet normal 3.415247e-01 -5.915376e-01 -7.303725e-01
    outer loop
      vertex 5.631518e+01 -1.366041e+01 6.200001e-05
      vertex 5.827272e+01 -1.479059e+01 1.830760e+00
      vertex 3.265465e+01 -2.732082e+01 6.200001e-05
    endloop
  endfacet
  facet normal 3.415238e-01 -5.915357e-01 -7.303746e-01
    outer loop
      vertex 3.265465e+01 -2.732082e+01 6.200001e-05
      vertex 5.827272e+01 -1.479059e+01 1.830760e+00
      vertex 3.265465e+01 -2.958120e+01 1.830760e+00
    endloop
  endfacet
  facet normal -3.415239e-01 -5.915378e-01 -7.303728e-01
    outer loop
      vertex 8.994117e+00 -1.366042e+01 6.200001e-05
      vertex 3.265465e+01 -2.732082e+01 6.200001e-05
      vertex 7.036578e+00 -1.479060e+01 1.830760e+00
    endloop
  endfacet
  facet normal -3.415239e-01 -5.915378e-01 -7.303728e-01
    outer loop
      vertex 7.036578e+00 -1.479060e+01 1.830760e+00
      vertex 3.265465e+01 -2.732082e+01 6.200001e-05
      vertex 3.265465e+01 -2.958120e+01 1.830760e+00
    endloop
  endfacet
  facet normal -6.830482e-01 -4.472247e-17 -7.303733e-01
    outer loop
      vertex 7.036578e+00 -1.479060e+01 1.830760e+00
      vertex 7.036578e+00 1.479061e+01 1.830760e+00
      vertex 8.994117e+00 -1.366042e+01 6.200001e-05
    endloop
  endfacet
  facet normal -6.830482e-01 -4.472247e-17 -7.303733e-01
    outer loop
      vertex 8.994117e+00 -1.366042e+01 6.200001e-05
      vertex 7.036578e+00 1.479061e+01 1.830760e+00
      vertex 8.994117e+00 1.366042e+01 6.200001e-05
    endloop
  endfacet
  facet normal -3.415239e-01 5.915368e-01 -7.303737e-01
    outer loop
      vertex 7.036578e+00 1.479061e+01 1.830760e+00
      vertex 3.265464e+01 2.958120e+01 1.830760e+00
      vertex 8.994117e+00 1.366042e+01 6.200001e-05
    endloop
  endfacet
  facet normal -3.415241e-01 5.915372e-01 -7.303733e-01
    outer loop
      vertex 8.994117e+00 1.366042e+01 6.200001e-05
      vertex 3.265464e+01 2.958120e+01 1.830760e+00
      vertex 3.265465e+01 2.732085e+01 6.200001e-05
    endloop
  endfacet
  facet normal 3.000000e-06 5.000000e-06 1.000000e+00
    outer loop
      vertex 5.565754e+01 1.328074e+01 1.228956e+00
      vertex 3.265464e+01 2.656146e+01 1.228956e+00
      vertex 3.265465e+01 4.291534e-06 1.229079e+00
    endloop
  endfacet
  facet normal 5.000000e-06 6.123234e-17 1.000000e+00
    outer loop
      vertex 5.565755e+01 -1.328072e+01 1.228956e+00
      vertex 5.565754e+01 1.328074e+01 1.228956e+00
      vertex 3.265465e+01 4.291534e-06 1.229079e+00
    endloop
  endfacet
  facet normal 3.000000e-06 -5.000000e-06 1.000000e+00
    outer loop
      vertex 3.265466e+01 -2.656145e+01 1.228956e+00
      vertex 5.565755e+01 -1.328072e+01 1.228956e+00
      vertex 3.265465e+01 4.291534e-06 1.229079e+00
    endloop
  endfacet
  facet normal -3.000000e-06 -5.000000e-06 1.000000e+00
    outer loop
      vertex 9.651753e+00 -1.328072e+01 1.228956e+00
      vertex 3.265466e+01 -2.656145e+01 1.228956e+00
      vertex 3.265465e+01 4.291534e-06 1.229079e+00
    endloop
  endfacet
  facet normal -5.000000e-06 6.123234e-17 1.000000e+00
    outer loop
      vertex 9.651753e+00 -1.328072e+01 1.228956e+00
      vertex 3.265465e+01 4.291534e-06 1.229079e+00
      vertex 9.651748e+00 1.328074e+01 1.228956e+00
    endloop
  endfacet
  facet normal -3.000000e-06 5.000000e-06 1.000000e+00
    outer loop
      vertex 3.265465e+01 4.291534e-06 1.229079e+00
      vertex 3.265464e+01 2.656146e+01 1.228956e+00
      vertex 9.651748e+00 1.328074e+01 1.228956e+00
    endloop
  endfacet
  facet normal 0.000000e+00 -6.123234e-17 -1.000000e+00
    outer loop
      vertex 3.265465e+01 2.732085e+01 6.200001e-05
      vertex 5.631518e+01 1.366043e+01 6.200001e-05
      vertex 3.265465e+01 4.291534e-06 6.200001e-05
    endloop
  endfacet
  facet normal 0.000000e+00 -6.123234e-17 -1.000000e+00
    outer loop
      vertex 5.631518e+01 1.366043e+01 6.200001e-05
      vertex 5.631518e+01 -1.366041e+01 6.200001e-05
      vertex 3.265465e+01 4.291534e-06 6.200001e-05
    endloop
  endfacet
  facet normal -0.000000e+00 -6.123234e-17 -1.000000e+00
    outer loop
      vertex 5.631518e+01 -1.366041e+01 6.200001e-05
      vertex 3.265465e+01 -2.732082e+01 6.200001e-05
      vertex 3.265465e+01 4.291534e-06 6.200001e-05
    endloop
  endfacet
  facet normal 0.000000e+00 -6.123234e-17 -1.000000e+00
    outer loop
      vertex 8.994117e+00 -1.366042e+01 6.200001e-05
      vertex 3.265465e+01 4.291534e-06 6.200001e-05
      vertex 3.265465e+01 -2.732082e+01 6.200001e-05
    endloop
  endfacet
  facet normal 0.000000e+00 -6.123234e-17 -1.000000e+00
    outer loop
      vertex 8.994117e+00 1.366042e+01 6.200001e-05
      vertex 3.265465e+01 4.291534e-06 6.200001e-05
      vertex 8.994117e+00 -1.366042e+01 6.200001e-05
    endloop
  endfacet
  facet normal 0.000000e+00 -6.123234e-17 -1.000000e+00
    outer loop
      vertex 8.994117e+00 1.366042e+01 6.200001e-05
      vertex 3.265465e+01 2.732085e+01 6.200001e-05
      vertex 3.265465e+01 4.291534e-06 6.200001e-05
    endloop
  endfacet
  facet normal 1.000000e-06 1.000000e-06 1.000000e+00
    outer loop
      vertex 5.826705e+01 1.478733e+01 5.705285e+00
      vertex 3.265464e+01 2.957465e+01 5.705285e+00
      vertex 5.567157e+01 1.328883e+01 5.705290e+00
    endloop
  endfacet
  facet normal 1.000000e-06 1.000000e-06 1.000000e+00
    outer loop
      vertex 5.567157e+01 1.328883e+01 5.705290e+00
      vertex 3.265464e+01 2.957465e+01 5.705285e+00
      vertex 3.265464e+01 2.657765e+01 5.705290e+00
    endloop
  endfacet
  facet normal 2.000000e-06 6.123234e-17 1.000000e+00
    outer loop
      vertex 5.826705e+01 -1.478732e+01 5.705285e+00
      vertex 5.826705e+01 1.478733e+01 5.705285e+00
      vertex 5.567157e+01 -1.328881e+01 5.705290e+00
    endloop
  endfacet
  facet normal 2.000000e-06 6.123234e-17 1.000000e+00
    outer loop
      vertex 5.567157e+01 -1.328881e+01 5.705290e+00
      vertex 5.826705e+01 1.478733e+01 5.705285e+00
      vertex 5.567157e+01 1.328883e+01 5.705290e+00
    endloop
  endfacet
  facet normal 1.000000e-06 -2.000000e-06 1.000000e+00
    outer loop
      vertex 5.826705e+01 -1.478732e+01 5.705285e+00
      vertex 5.567157e+01 -1.328881e+01 5.705290e+00
      vertex 4.746532e+01 -2.102370e+01 5.705285e+00
    endloop
  endfacet
  facet normal 1.000000e-06 -2.000000e-06 1.000000e+00
    outer loop
      vertex 4.746532e+01 -2.102370e+01 5.705285e+00
      vertex 5.567157e+01 -1.328881e+01 5.705290e+00
      vertex 4.616456e+01 -1.877769e+01 5.705290e+00
    endloop
  endfacet
  facet normal -1.000000e-06 -1.000000e-06 1.000000e+00
    outer loop
      vertex 3.265466e+01 -2.957465e+01 5.705285e+00
      vertex 3.265466e+01 -2.657763e+01 5.705290e+00
      vertex 2.332012e+01 -2.418786e+01 5.705285e+00
    endloop
  endfacet
  facet normal -1.000000e-06 -2.000000e-06 1.000000e+00
    outer loop
      vertex 2.332012e+01 -2.418786e+01 5.705285e+00
      vertex 3.265466e+01 -2.657763e+01 5.705290e+00
      vertex 2.461716e+01 -2.193993e+01 5.705290e+00
    endloop
  endfacet
  facet normal -2.000000e-06 6.123234e-17 1.000000e+00
    outer loop
      vertex 7.042251e+00 1.478733e+01 5.705285e+00
      vertex 7.042251e+00 -1.478732e+01 5.705285e+00
      vertex 9.637731e+00 1.328883e+01 5.705290e+00
    endloop
  endfacet
  facet normal -2.000000e-06 6.123234e-17 1.000000e+00
    outer loop
      vertex 9.637731e+00 1.328883e+01 5.705290e+00
      vertex 7.042251e+00 -1.478732e+01 5.705285e+00
      vertex 9.637740e+00 -1.328882e+01 5.705290e+00
    endloop
  endfacet
  facet normal -1.000000e-06 2.000000e-06 1.000000e+00
    outer loop
      vertex 9.637731e+00 1.328883e+01 5.705290e+00
      vertex 3.265464e+01 2.657765e+01 5.705290e+00
      vertex 7.042251e+00 1.478733e+01 5.705285e+00
    endloop
  endfacet
  facet normal -1.000000e-06 2.000000e-06 1.000000e+00
    outer loop
      vertex 7.042251e+00 1.478733e+01 5.705285e+00
      vertex 3.265464e+01 2.657765e+01 5.705290e+00
      vertex 3.265464e+01 2.957465e+01 5.705285e+00
    endloop
  endfacet
  facet normal -4.999972e-01 -8.660214e-01 3.132001e-03
    outer loop
      vertex 5.567157e+01 1.328883e+01 5.705290e+00
      vertex 3.265464e+01 2.657765e+01 5.705290e+00
      vertex 5.565754e+01 1.328074e+01 1.228956e+00
    endloop
  endfacet
  facet normal -4.999972e-01 -8.660214e-01 3.132001e-03
    outer loop
      vertex 5.565754e+01 1.328074e+01 1.228956e+00
      vertex 3.265464e+01 2.657765e+01 5.705290e+00
      vertex 3.265464e+01 2.656146e+01 1.228956e+00
    endloop
  endfacet
  facet normal -9.999951e-01 1.917797e-19 3.132001e-03
    outer loop
      vertex 5.567157e+01 -1.328881e+01 5.705290e+00
      vertex 5.567157e+01 1.328883e+01 5.705290e+00
      vertex 5.565755e+01 -1.328072e+01 1.228956e+00
    endloop
  endfacet
  facet normal -9.999951e-01 1.917797e-19 3.132001e-03
    outer loop
      vertex 5.565755e+01 -1.328072e+01 1.228956e+00
      vertex 5.567157e+01 1.328883e+01 5.705290e+00
      vertex 5.565754e+01 1.328074e+01 1.228956e+00
    endloop
  endfacet
  facet normal -4.999980e-01 8.660209e-01 3.131000e-03
    outer loop
      vertex 5.567157e+01 -1.328881e+01 5.705290e+00
      vertex 5.565755e+01 -1.328072e+01 1.228956e+00
      vertex 4.616456e+01 -1.877769e+01 5.705290e+00
    endloop
  endfacet
  facet normal -5.006022e-01 8.656763e-01 1.424000e-03
    outer loop
      vertex 4.616456e+01 -1.877769e+01 5.705290e+00
      vertex 5.565755e+01 -1.328072e+01 1.228956e+00
      vertex 4.616398e+01 -1.877802e+01 3.944794e+00
    endloop
  endfacet
  facet normal -5.000358e-01 8.659977e-01 3.471999e-03
    outer loop
      vertex 5.565755e+01 -1.328072e+01 1.228956e+00
      vertex 3.265466e+01 -2.656145e+01 1.228956e+00
      vertex 4.616398e+01 -1.877802e+01 3.944794e+00
    endloop
  endfacet
  facet normal -5.001599e-01 8.659219e-01 4.389999e-03
    outer loop
      vertex 4.616398e+01 -1.877802e+01 3.944794e+00
      vertex 3.265466e+01 -2.656145e+01 1.228956e+00
      vertex 4.059757e+01 -2.199179e+01 3.944794e+00
    endloop
  endfacet
  facet normal -4.999961e-01 8.660221e-01 3.131001e-03
    outer loop
      vertex 3.265466e+01 -2.657763e+01 5.705290e+00
      vertex 4.059757e+01 -2.199179e+01 5.705290e+00
      vertex 3.265466e+01 -2.656145e+01 1.228956e+00
    endloop
  endfacet
  facet normal -4.999401e-01 8.660531e-01 3.463001e-03
    outer loop
      vertex 3.265466e+01 -2.656145e+01 1.228956e+00
      vertex 4.059757e+01 -2.199179e+01 5.705290e+00
      vertex 4.059757e+01 -2.199179e+01 3.944794e+00
    endloop
  endfacet
  facet normal 9.999951e-01 1.917797e-19 3.132001e-03
    outer loop
      vertex 9.637731e+00 1.328883e+01 5.705290e+00
      vertex 9.637740e+00 -1.328882e+01 5.705290e+00
      vertex 9.651748e+00 1.328074e+01 1.228956e+00
    endloop
  endfacet
  facet normal 9.999951e-01 1.917797e-19 3.132001e-03
    outer loop
      vertex 9.651748e+00 1.328074e+01 1.228956e+00
      vertex 9.637740e+00 -1.328882e+01 5.705290e+00
      vertex 9.651753e+00 -1.328072e+01 1.228956e+00
    endloop
  endfacet
  facet normal 4.999980e-01 -8.660209e-01 3.131000e-03
    outer loop
      vertex 9.651748e+00 1.328074e+01 1.228956e+00
      vertex 3.265464e+01 2.656146e+01 1.228956e+00
      vertex 9.637731e+00 1.328883e+01 5.705290e+00
    endloop
  endfacet
  facet normal 4.999980e-01 -8.660209e-01 3.131000e-03
    outer loop
      vertex 9.637731e+00 1.328883e+01 5.705290e+00
      vertex 3.265464e+01 2.656146e+01 1.228956e+00
      vertex 3.265464e+01 2.657765e+01 5.705290e+00
    endloop
  endfacet
  facet normal -1.000000e-06 -2.000000e-06 1.000000e+00
    outer loop
      vertex 7.042251e+00 -1.478732e+01 5.705285e+00
      vertex 1.759079e+01 -2.088002e+01 5.705285e+00
      vertex 9.637740e+00 -1.328882e+01 5.705290e+00
    endloop
  endfacet
  facet normal -1.000000e-06 -2.000000e-06 1.000000e+00
    outer loop
      vertex 9.637740e+00 -1.328882e+01 5.705290e+00
      vertex 1.759079e+01 -2.088002e+01 5.705285e+00
      vertex 1.886828e+01 -1.862081e+01 5.705290e+00
    endloop
  endfacet
  facet normal 5.001907e-01 8.659096e-01 3.130999e-03
    outer loop
      vertex 9.637740e+00 -1.328882e+01 5.705290e+00
      vertex 1.886828e+01 -1.862081e+01 5.705290e+00
      vertex 9.651753e+00 -1.328072e+01 1.228956e+00
    endloop
  endfacet
  facet normal 5.008038e-01 8.655596e-01 1.450999e-03
    outer loop
      vertex 1.886828e+01 -1.862081e+01 5.705290e+00
      vertex 1.886828e+01 -1.862081e+01 3.944794e+00
      vertex 9.651753e+00 -1.328072e+01 1.228956e+00
    endloop
  endfacet
  facet normal 5.001861e-01 8.659101e-01 3.699000e-03
    outer loop
      vertex 9.651753e+00 -1.328072e+01 1.228956e+00
      vertex 1.886828e+01 -1.862081e+01 3.944794e+00
      vertex 3.265466e+01 -2.656145e+01 1.228956e+00
    endloop
  endfacet
  facet normal 5.001878e-01 8.659016e-01 5.154998e-03
    outer loop
      vertex 1.886828e+01 -1.862081e+01 3.944794e+00
      vertex 2.461716e+01 -2.193993e+01 3.944794e+00
      vertex 3.265466e+01 -2.656145e+01 1.228956e+00
    endloop
  endfacet
  facet normal 4.997760e-01 8.661490e-01 3.132000e-03
    outer loop
      vertex 3.265466e+01 -2.657763e+01 5.705290e+00
      vertex 3.265466e+01 -2.656145e+01 1.228956e+00
      vertex 2.461716e+01 -2.193993e+01 5.705290e+00
    endloop
  endfacet
  facet normal 4.994281e-01 8.663471e-01 3.801001e-03
    outer loop
      vertex 2.461716e+01 -2.193993e+01 3.944794e+00
      vertex 2.461716e+01 -2.193993e+01 5.705290e+00
      vertex 3.265466e+01 -2.656145e+01 1.228956e+00
    endloop
  endfacet
  facet normal -8.661599e-01 4.997669e-01 -3.060190e-17
    outer loop
      vertex 2.461716e+01 -2.193993e+01 3.944794e+00
      vertex 2.332012e+01 -2.418786e+01 3.944794e+00
      vertex 2.461716e+01 -2.193993e+01 5.705290e+00
    endloop
  endfacet
  facet normal -8.661599e-01 4.997669e-01 -3.060190e-17
    outer loop
      vertex 2.461716e+01 -2.193993e+01 5.705290e+00
      vertex 2.332012e+01 -2.418786e+01 3.944794e+00
      vertex 2.332012e+01 -2.418786e+01 5.705285e+00
    endloop
  endfacet
  facet normal -5.001538e-01 -8.659366e-01 -9.999995e-07
    outer loop
      vertex 1.759079e+01 -2.088002e+01 5.705285e+00
      vertex 7.042251e+00 -1.478732e+01 5.705285e+00
      vertex 1.759080e+01 -2.088002e+01 3.944794e+00
    endloop
  endfacet
  facet normal -4.999780e-01 -8.660370e-01 1.401000e-03
    outer loop
      vertex 7.042251e+00 -1.478732e+01 5.705285e+00
      vertex 7.036578e+00 -1.479060e+01 1.830760e+00
      vertex 1.759080e+01 -2.088002e+01 3.944794e+00
    endloop
  endfacet
  facet normal -4.999741e-01 -8.660391e-01 1.493000e-03
    outer loop
      vertex 7.036578e+00 -1.479060e+01 1.830760e+00
      vertex 3.265465e+01 -2.958120e+01 1.830760e+00
      vertex 1.759080e+01 -2.088002e+01 3.944794e+00
    endloop
  endfacet
  facet normal -5.000179e-01 -8.660139e-01 1.423000e-03
    outer loop
      vertex 1.759080e+01 -2.088002e+01 3.944794e+00
      vertex 3.265465e+01 -2.958120e+01 1.830760e+00
      vertex 2.332012e+01 -2.418786e+01 3.944794e+00
    endloop
  endfacet
  facet normal -4.998251e-01 -8.661252e-01 1.465000e-03
    outer loop
      vertex 3.265466e+01 -2.957465e+01 5.705285e+00
      vertex 2.332012e+01 -2.418786e+01 5.705285e+00
      vertex 3.265465e+01 -2.958120e+01 1.830760e+00
    endloop
  endfacet
  facet normal -4.998701e-01 -8.660992e-01 1.425000e-03
    outer loop
      vertex 3.265465e+01 -2.958120e+01 1.830760e+00
      vertex 2.332012e+01 -2.418786e+01 5.705285e+00
      vertex 2.332012e+01 -2.418786e+01 3.944794e+00
    endloop
  endfacet
  facet normal 8.704737e-01 -4.922149e-01 9.999997e-07
    outer loop
      vertex 1.759079e+01 -2.088002e+01 5.705285e+00
      vertex 1.759080e+01 -2.088002e+01 3.944794e+00
      vertex 1.886828e+01 -1.862081e+01 5.705290e+00
    endloop
  endfacet
  facet normal 8.704742e-01 -4.922141e-01 3.013942e-17
    outer loop
      vertex 1.886828e+01 -1.862081e+01 5.705290e+00
      vertex 1.759080e+01 -2.088002e+01 3.944794e+00
      vertex 1.886828e+01 -1.862081e+01 3.944794e+00
    endloop
  endfacet
  facet normal 0.000000e+00 6.123234e-17 1.000000e+00
    outer loop
      vertex 2.332012e+01 -2.418786e+01 3.944794e+00
      vertex 2.461716e+01 -2.193993e+01 3.944794e+00
      vertex 1.759080e+01 -2.088002e+01 3.944794e+00
    endloop
  endfacet
  facet normal 0.000000e+00 6.123234e-17 1.000000e+00
    outer loop
      vertex 1.759080e+01 -2.088002e+01 3.944794e+00
      vertex 2.461716e+01 -2.193993e+01 3.944794e+00
      vertex 1.886828e+01 -1.862081e+01 3.944794e+00
    endloop
  endfacet
  facet normal 8.660271e-01 4.999970e-01 -3.061599e-17
    outer loop
      vertex 4.189531e+01 -2.423956e+01 5.705285e+00
      vertex 4.189531e+01 -2.423956e+01 3.944794e+00
      vertex 4.059757e+01 -2.199179e+01 5.705290e+00
    endloop
  endfacet
  facet normal 8.660271e-01 4.999970e-01 -3.061599e-17
    outer loop
      vertex 4.059757e+01 -2.199179e+01 5.705290e+00
      vertex 4.189531e+01 -2.423956e+01 3.944794e+00
      vertex 4.059757e+01 -2.199179e+01 3.944794e+00
    endloop
  endfacet
  facet normal 1.000000e-06 -1.000000e-06 1.000000e+00
    outer loop
      vertex 3.265466e+01 -2.957465e+01 5.705285e+00
      vertex 4.189531e+01 -2.423956e+01 5.705285e+00
      vertex 3.265466e+01 -2.657763e+01 5.705290e+00
    endloop
  endfacet
  facet normal 1.000000e-06 -1.000000e-06 1.000000e+00
    outer loop
      vertex 3.265466e+01 -2.657763e+01 5.705290e+00
      vertex 4.189531e+01 -2.423956e+01 5.705285e+00
      vertex 4.059757e+01 -2.199179e+01 5.705290e+00
    endloop
  endfacet
  facet normal 0.000000e+00 6.123234e-17 1.000000e+00
    outer loop
      vertex 4.189531e+01 -2.423956e+01 3.944794e+00
      vertex 4.746379e+01 -2.102458e+01 3.944794e+00
      vertex 4.059757e+01 -2.199179e+01 3.944794e+00
    endloop
  endfacet
  facet normal 0.000000e+00 6.123234e-17 1.000000e+00
    outer loop
      vertex 4.059757e+01 -2.199179e+01 3.944794e+00
      vertex 4.746379e+01 -2.102458e+01 3.944794e+00
      vertex 4.616398e+01 -1.877802e+01 3.944794e+00
    endloop
  endfacet
  facet normal -8.655642e-01 -5.007971e-01 1.003000e-03
    outer loop
      vertex 4.746379e+01 -2.102458e+01 3.944794e+00
      vertex 4.746532e+01 -2.102370e+01 5.705285e+00
      vertex 4.616398e+01 -1.877802e+01 3.944794e+00
    endloop
  endfacet
  facet normal -8.654327e-01 -5.010248e-01 6.149998e-04
    outer loop
      vertex 4.616398e+01 -1.877802e+01 3.944794e+00
      vertex 4.746532e+01 -2.102370e+01 5.705285e+00
      vertex 4.616456e+01 -1.877769e+01 5.705290e+00
    endloop
  endfacet
  facet normal 4.999989e-01 -8.660219e-01 2.682000e-03
    outer loop
      vertex 5.827272e+01 -1.479059e+01 1.830760e+00
      vertex 4.746379e+01 -2.102458e+01 3.944794e+00
      vertex 3.265465e+01 -2.958120e+01 1.830760e+00
    endloop
  endfacet
  facet normal 4.999989e-01 -8.660219e-01 2.682000e-03
    outer loop
      vertex 3.265465e+01 -2.958120e+01 1.830760e+00
      vertex 4.746379e+01 -2.102458e+01 3.944794e+00
      vertex 4.189531e+01 -2.423956e+01 3.944794e+00
    endloop
  endfacet
  facet normal 4.998208e-01 -8.661276e-01 1.462999e-03
    outer loop
      vertex 5.827272e+01 -1.479059e+01 1.830760e+00
      vertex 5.826705e+01 -1.478732e+01 5.705285e+00
      vertex 4.746379e+01 -2.102458e+01 3.944794e+00
    endloop
  endfacet
  facet normal 4.999431e-01 -8.660582e-01 4.710001e-04
    outer loop
      vertex 4.746379e+01 -2.102458e+01 3.944794e+00
      vertex 5.826705e+01 -1.478732e+01 5.705285e+00
      vertex 4.746532e+01 -2.102370e+01 5.705285e+00
    endloop
  endfacet
endsolid Default
